<mxfile host="app.diagrams.net" agent="Mozilla/5.0 (Macintosh; Intel Mac OS X 10_15_7) AppleWebKit/537.36 (KHTML, like Gecko) Chrome/131.0.0.0 Safari/537.36" version="25.0.3">
  <diagram name="Page-1" id="13e1069c-82ec-6db2-03f1-153e76fe0fe0">
    <mxGraphModel dx="1122" dy="712" grid="1" gridSize="11" guides="1" tooltips="1" connect="1" arrows="1" fold="1" page="1" pageScale="1" pageWidth="1100" pageHeight="850" background="none" math="0" shadow="0">
      <root>
        <mxCell id="0" />
        <mxCell id="1" parent="0" />
        <mxCell id="a_j_Lw5pQNurTmBxgv8E-95" value="Utilisateur" style="swimlane;fontStyle=1;align=center;verticalAlign=top;childLayout=stackLayout;horizontal=1;startSize=26;horizontalStack=0;resizeParent=1;resizeParentMax=0;resizeLast=0;collapsible=1;marginBottom=0;whiteSpace=wrap;html=1;" vertex="1" parent="1">
          <mxGeometry x="451" y="99" width="198" height="187" as="geometry" />
        </mxCell>
        <mxCell id="a_j_Lw5pQNurTmBxgv8E-96" value="+nom:&lt;div&gt;+motDePasse&lt;/div&gt;&lt;div&gt;+courriel&lt;/div&gt;&lt;div&gt;+prenom&lt;/div&gt;&lt;div&gt;+typeUtilisateur&lt;/div&gt;" style="text;strokeColor=none;fillColor=none;align=left;verticalAlign=top;spacingLeft=4;spacingRight=4;overflow=hidden;rotatable=0;points=[[0,0.5],[1,0.5]];portConstraint=eastwest;whiteSpace=wrap;html=1;" vertex="1" parent="a_j_Lw5pQNurTmBxgv8E-95">
          <mxGeometry y="26" width="198" height="95" as="geometry" />
        </mxCell>
        <mxCell id="a_j_Lw5pQNurTmBxgv8E-97" value="" style="line;strokeWidth=1;fillColor=none;align=left;verticalAlign=middle;spacingTop=-1;spacingLeft=3;spacingRight=3;rotatable=0;labelPosition=right;points=[];portConstraint=eastwest;strokeColor=inherit;" vertex="1" parent="a_j_Lw5pQNurTmBxgv8E-95">
          <mxGeometry y="121" width="198" height="8" as="geometry" />
        </mxCell>
        <mxCell id="a_j_Lw5pQNurTmBxgv8E-98" value="+authentifier()&lt;div&gt;+consulterProfil()&lt;/div&gt;&lt;div&gt;+ModifierProfil()&lt;/div&gt;" style="text;strokeColor=none;fillColor=none;align=left;verticalAlign=top;spacingLeft=4;spacingRight=4;overflow=hidden;rotatable=0;points=[[0,0.5],[1,0.5]];portConstraint=eastwest;whiteSpace=wrap;html=1;" vertex="1" parent="a_j_Lw5pQNurTmBxgv8E-95">
          <mxGeometry y="129" width="198" height="58" as="geometry" />
        </mxCell>
        <mxCell id="a_j_Lw5pQNurTmBxgv8E-99" value="Message" style="swimlane;fontStyle=1;align=center;verticalAlign=top;childLayout=stackLayout;horizontal=1;startSize=26;horizontalStack=0;resizeParent=1;resizeParentMax=0;resizeLast=0;collapsible=1;marginBottom=0;whiteSpace=wrap;html=1;" vertex="1" parent="1">
          <mxGeometry x="176" y="220" width="165" height="198" as="geometry" />
        </mxCell>
        <mxCell id="a_j_Lw5pQNurTmBxgv8E-100" value="+idMessage&lt;div&gt;+description&lt;/div&gt;&lt;div&gt;+contenu&lt;/div&gt;&lt;div&gt;+priorité&lt;/div&gt;&lt;div&gt;+etatMessage&lt;/div&gt;&lt;div&gt;+horodatage&lt;/div&gt;" style="text;strokeColor=none;fillColor=none;align=left;verticalAlign=top;spacingLeft=4;spacingRight=4;overflow=hidden;rotatable=0;points=[[0,0.5],[1,0.5]];portConstraint=eastwest;whiteSpace=wrap;html=1;" vertex="1" parent="a_j_Lw5pQNurTmBxgv8E-99">
          <mxGeometry y="26" width="165" height="106" as="geometry" />
        </mxCell>
        <mxCell id="a_j_Lw5pQNurTmBxgv8E-101" value="" style="line;strokeWidth=1;fillColor=none;align=left;verticalAlign=middle;spacingTop=-1;spacingLeft=3;spacingRight=3;rotatable=0;labelPosition=right;points=[];portConstraint=eastwest;strokeColor=inherit;" vertex="1" parent="a_j_Lw5pQNurTmBxgv8E-99">
          <mxGeometry y="132" width="165" height="8" as="geometry" />
        </mxCell>
        <mxCell id="a_j_Lw5pQNurTmBxgv8E-102" value="+envoyer()&lt;div&gt;+analyserPriorité()&lt;/div&gt;&lt;div&gt;+sauvegarderEtat()&lt;/div&gt;&lt;div&gt;&lt;br&gt;&lt;/div&gt;" style="text;strokeColor=none;fillColor=none;align=left;verticalAlign=top;spacingLeft=4;spacingRight=4;overflow=hidden;rotatable=0;points=[[0,0.5],[1,0.5]];portConstraint=eastwest;whiteSpace=wrap;html=1;" vertex="1" parent="a_j_Lw5pQNurTmBxgv8E-99">
          <mxGeometry y="140" width="165" height="58" as="geometry" />
        </mxCell>
        <mxCell id="a_j_Lw5pQNurTmBxgv8E-103" value="ListeDeDistribution" style="swimlane;fontStyle=1;align=center;verticalAlign=top;childLayout=stackLayout;horizontal=1;startSize=26;horizontalStack=0;resizeParent=1;resizeParentMax=0;resizeLast=0;collapsible=1;marginBottom=0;whiteSpace=wrap;html=1;" vertex="1" parent="1">
          <mxGeometry x="792" y="385" width="187" height="220" as="geometry" />
        </mxCell>
        <mxCell id="a_j_Lw5pQNurTmBxgv8E-104" value="+nomListe&lt;div&gt;+description&lt;/div&gt;&lt;div&gt;+utilisateurs&lt;/div&gt;&lt;div&gt;+groupes&lt;/div&gt;" style="text;strokeColor=none;fillColor=none;align=left;verticalAlign=top;spacingLeft=4;spacingRight=4;overflow=hidden;rotatable=0;points=[[0,0.5],[1,0.5]];portConstraint=eastwest;whiteSpace=wrap;html=1;" vertex="1" parent="a_j_Lw5pQNurTmBxgv8E-103">
          <mxGeometry y="26" width="187" height="117" as="geometry" />
        </mxCell>
        <mxCell id="a_j_Lw5pQNurTmBxgv8E-105" value="" style="line;strokeWidth=1;fillColor=none;align=left;verticalAlign=middle;spacingTop=-1;spacingLeft=3;spacingRight=3;rotatable=0;labelPosition=right;points=[];portConstraint=eastwest;strokeColor=inherit;" vertex="1" parent="a_j_Lw5pQNurTmBxgv8E-103">
          <mxGeometry y="143" width="187" height="8" as="geometry" />
        </mxCell>
        <mxCell id="a_j_Lw5pQNurTmBxgv8E-106" value="+ajouterUtilisateur()&lt;div&gt;+retirerUtilisateur()&lt;/div&gt;&lt;div&gt;+associerGroupe()&lt;/div&gt;&lt;div&gt;+sauvegardeListe()&lt;/div&gt;" style="text;strokeColor=none;fillColor=none;align=left;verticalAlign=top;spacingLeft=4;spacingRight=4;overflow=hidden;rotatable=0;points=[[0,0.5],[1,0.5]];portConstraint=eastwest;whiteSpace=wrap;html=1;" vertex="1" parent="a_j_Lw5pQNurTmBxgv8E-103">
          <mxGeometry y="151" width="187" height="69" as="geometry" />
        </mxCell>
        <mxCell id="a_j_Lw5pQNurTmBxgv8E-107" value="Groupe" style="swimlane;fontStyle=1;align=center;verticalAlign=top;childLayout=stackLayout;horizontal=1;startSize=26;horizontalStack=0;resizeParent=1;resizeParentMax=0;resizeLast=0;collapsible=1;marginBottom=0;whiteSpace=wrap;html=1;" vertex="1" parent="1">
          <mxGeometry x="792" y="154" width="165" height="132" as="geometry" />
        </mxCell>
        <mxCell id="a_j_Lw5pQNurTmBxgv8E-108" value="+nomGroupe&lt;div&gt;+utilisateur&lt;/div&gt;" style="text;strokeColor=none;fillColor=none;align=left;verticalAlign=top;spacingLeft=4;spacingRight=4;overflow=hidden;rotatable=0;points=[[0,0.5],[1,0.5]];portConstraint=eastwest;whiteSpace=wrap;html=1;" vertex="1" parent="a_j_Lw5pQNurTmBxgv8E-107">
          <mxGeometry y="26" width="165" height="40" as="geometry" />
        </mxCell>
        <mxCell id="a_j_Lw5pQNurTmBxgv8E-109" value="" style="line;strokeWidth=1;fillColor=none;align=left;verticalAlign=middle;spacingTop=-1;spacingLeft=3;spacingRight=3;rotatable=0;labelPosition=right;points=[];portConstraint=eastwest;strokeColor=inherit;" vertex="1" parent="a_j_Lw5pQNurTmBxgv8E-107">
          <mxGeometry y="66" width="165" height="8" as="geometry" />
        </mxCell>
        <mxCell id="a_j_Lw5pQNurTmBxgv8E-110" value="+ajouterUtilisateur()&lt;div&gt;&lt;span style=&quot;background-color: initial;&quot;&gt;+retirerUtilisateur()&lt;/span&gt;&lt;/div&gt;&lt;div&gt;&lt;div&gt;+consulterListeUtilisateur()&lt;/div&gt;&lt;/div&gt;" style="text;strokeColor=none;fillColor=none;align=left;verticalAlign=top;spacingLeft=4;spacingRight=4;overflow=hidden;rotatable=0;points=[[0,0.5],[1,0.5]];portConstraint=eastwest;whiteSpace=wrap;html=1;" vertex="1" parent="a_j_Lw5pQNurTmBxgv8E-107">
          <mxGeometry y="74" width="165" height="58" as="geometry" />
        </mxCell>
        <mxCell id="a_j_Lw5pQNurTmBxgv8E-111" value="Systeme" style="swimlane;fontStyle=1;align=center;verticalAlign=top;childLayout=stackLayout;horizontal=1;startSize=26;horizontalStack=0;resizeParent=1;resizeParentMax=0;resizeLast=0;collapsible=1;marginBottom=0;whiteSpace=wrap;html=1;" vertex="1" parent="1">
          <mxGeometry x="253" y="561" width="187" height="132" as="geometry" />
        </mxCell>
        <mxCell id="a_j_Lw5pQNurTmBxgv8E-113" value="" style="line;strokeWidth=1;fillColor=none;align=left;verticalAlign=middle;spacingTop=-1;spacingLeft=3;spacingRight=3;rotatable=0;labelPosition=right;points=[];portConstraint=eastwest;strokeColor=inherit;" vertex="1" parent="a_j_Lw5pQNurTmBxgv8E-111">
          <mxGeometry y="26" width="187" height="8" as="geometry" />
        </mxCell>
        <mxCell id="a_j_Lw5pQNurTmBxgv8E-114" value="+obtenirMessageNonEnvoyé()&lt;div&gt;+stopMessages()&lt;/div&gt;&lt;div&gt;+sauvegardeEtatMessage()&lt;/div&gt;&lt;div&gt;+envoyerMessage()&lt;/div&gt;&lt;div&gt;+AfficherGroupe()&lt;/div&gt;&lt;div&gt;+AfficherUtilisateur()&lt;/div&gt;" style="text;strokeColor=none;fillColor=none;align=left;verticalAlign=top;spacingLeft=4;spacingRight=4;overflow=hidden;rotatable=0;points=[[0,0.5],[1,0.5]];portConstraint=eastwest;whiteSpace=wrap;html=1;" vertex="1" parent="a_j_Lw5pQNurTmBxgv8E-111">
          <mxGeometry y="34" width="187" height="98" as="geometry" />
        </mxCell>
        <mxCell id="a_j_Lw5pQNurTmBxgv8E-118" value="" style="endArrow=diamondThin;endFill=0;endSize=24;html=1;rounded=0;" edge="1" parent="1">
          <mxGeometry width="160" relative="1" as="geometry">
            <mxPoint x="649" y="223.41" as="sourcePoint" />
            <mxPoint x="798" y="223.41" as="targetPoint" />
          </mxGeometry>
        </mxCell>
        <mxCell id="a_j_Lw5pQNurTmBxgv8E-119" value="" style="endArrow=open;html=1;endSize=12;startArrow=diamondThin;startSize=14;startFill=0;edgeStyle=orthogonalEdgeStyle;rounded=0;entryX=0.45;entryY=0.963;entryDx=0;entryDy=0;entryPerimeter=0;" edge="1" parent="1" source="a_j_Lw5pQNurTmBxgv8E-103" target="a_j_Lw5pQNurTmBxgv8E-110">
          <mxGeometry x="-0.186" y="-6" relative="1" as="geometry">
            <mxPoint x="885" y="286" as="sourcePoint" />
            <mxPoint x="884.9100000000001" y="385" as="targetPoint" />
            <Array as="points">
              <mxPoint x="866" y="308" />
              <mxPoint x="866" y="308" />
            </Array>
            <mxPoint as="offset" />
          </mxGeometry>
        </mxCell>
        <mxCell id="a_j_Lw5pQNurTmBxgv8E-121" value="1" style="edgeLabel;resizable=0;html=1;align=right;verticalAlign=top;" connectable="0" vertex="1" parent="a_j_Lw5pQNurTmBxgv8E-119">
          <mxGeometry x="1" relative="1" as="geometry">
            <mxPoint y="13" as="offset" />
          </mxGeometry>
        </mxCell>
        <mxCell id="a_j_Lw5pQNurTmBxgv8E-126" value="Relation" style="endArrow=open;html=1;endSize=12;startArrow=diamondThin;startSize=14;startFill=0;edgeStyle=orthogonalEdgeStyle;rounded=0;" edge="1" parent="1">
          <mxGeometry x="-0.0018" relative="1" as="geometry">
            <mxPoint x="495" y="418" as="sourcePoint" />
            <mxPoint x="363" y="418" as="targetPoint" />
            <mxPoint as="offset" />
          </mxGeometry>
        </mxCell>
        <mxCell id="a_j_Lw5pQNurTmBxgv8E-127" value="0..n" style="edgeLabel;resizable=0;html=1;align=left;verticalAlign=top;" connectable="0" vertex="1" parent="a_j_Lw5pQNurTmBxgv8E-126">
          <mxGeometry x="-1" relative="1" as="geometry" />
        </mxCell>
        <mxCell id="a_j_Lw5pQNurTmBxgv8E-128" value="1" style="edgeLabel;resizable=0;html=1;align=right;verticalAlign=top;" connectable="0" vertex="1" parent="a_j_Lw5pQNurTmBxgv8E-126">
          <mxGeometry x="1" relative="1" as="geometry" />
        </mxCell>
      </root>
    </mxGraphModel>
  </diagram>
</mxfile>
